<svg xmlns="http://www.w3.org/2000/svg" style="display:none"><defs><style>.cls-1{fill-rule:evenodd}</style><style>.cls-1{fill-rule:evenodd}</style><style>.cls-1{fill-rule:evenodd}</style><style>.cls-1{fill-rule:evenodd}</style><style>.cls-1{fill:#ed1d38;fill-rule:evenodd}</style><style>.cls-1{fill:#ed1d38;fill-rule:evenodd}</style><style>.cls-1{fill:#bcbcbc;fill-rule:evenodd}</style><style>.cls-1{fill-rule:evenodd}</style><style>.cls-1{fill:#ffd821;fill-rule:evenodd}</style><style>.cls-1{fill-rule:evenodd}</style><style>.cls-1{fill:#fff;fill-rule:evenodd}</style><style>.cls-1{fill-rule:evenodd}</style><style>.cls-1{fill-rule:evenodd}</style></defs><symbol id="auth-icon" viewBox="0 0 11 14"><path id="Forma_1" data-name="Forma 1" class="cls-1" d="M274.5 26.847a3.2 3.2 0 0 0 2.911-3.423c0-1.891-.428-3.424-2.911-3.424s-2.912 1.533-2.912 3.424a3.2 3.2 0 0 0 2.912 3.423zm-5.5 5.227c0-.115 0-.032 0 0zm11 .09c0-.032 0-.219 0 0zm-.006-.228c-.054-3.294-.5-4.232-3.9-4.826a2.448 2.448 0 0 1-3.189 0c-3.363.588-3.834 1.512-3.9 4.719a.616.616 0 0 1-.009.245v.346s.809 1.58 5.5 1.58 5.5-1.58 5.5-1.58v-.256a1.87 1.87 0 0 1-.003-.228z" transform="translate(-269 -20)"/></symbol><symbol id="basket"><path fill-rule="evenodd" d="M18.97 3.514l-1.527 5.954a.757.757 0 0 1-.681.501H9.501a.76.76 0 0 1-.682-.501l-2.22-5.646c-.107-.343.098-.808.459-.808h11.543c.29 0 .455.225.369.5zm-1.443 7.479c.518 0 .938.543.938 1.059 0 .517-.42.967-.938.967H6.504L2.625 1.864H.939a.936.936 0 1 1 0-1.87h3.02l3.879 10.999h9.689zm-8.999 2.935c.915 0 1.532.614 1.532 1.526s-.617 1.59-1.532 1.59-1.594-.678-1.594-1.59.679-1.526 1.594-1.526zm7.01-.01c.915 0 1.594.677 1.594 1.589 0 .911-.679 1.589-1.594 1.589s-1.594-.678-1.594-1.589c0-.912.679-1.589 1.594-1.589z"/></symbol><symbol id="box-icon"><path fill-rule="evenodd" fill="#DFDFDF" d="M79.963 20.744c0-.334-.073-.669-.22-.984a2.124 2.124 0 0 0-1.486-1.188L40.898.22a2.19 2.19 0 0 0-1.925 0L1.247 18.738A2.238 2.238 0 0 0 0 20.67v46.564c0 .855.477 1.634 1.247 2.005l37.726 18.519c.018 0 .018 0 .036.018.056.019.111.037.166.075.018 0 .036.018.073.018l.165.055c.018 0 .037.019.055.019.055.019.128.019.183.037h.056c.073 0 .165.018.238.018.073 0 .165 0 .238-.018h.055a.634.634 0 0 0 .184-.037c.018 0 .036-.019.055-.019l.165-.055c.018 0 .036-.018.073-.018.055-.02.11-.038.165-.075.018 0 .018 0 .037-.018l37.836-18.574A2.25 2.25 0 0 0 80 67.178V20.8c-.037-.019-.037-.037-.037-.056zM39.926 4.697l32.719 16.066-12.049 5.925-32.719-16.067 12.049-5.924zm0 32.132L7.208 20.763l15.625-7.671 32.719 16.066-15.626 7.671zM4.401 24.348l33.325 16.363v41.475L4.401 65.822V24.348zm37.726 57.838V40.711l15.645-7.69v10.847c0 1.226.99 2.229 2.2 2.229 1.211 0 2.201-1.003 2.201-2.229v-13.02l13.389-6.575v41.474L42.127 82.186z"/></symbol><symbol id="car-icon"><path fill-rule="evenodd" fill="#DFDFDF" d="M101.834 55.823c0 1.15-.935 2.071-2.077 2.071h-4.216a2.09 2.09 0 0 1-2.077-2.091 2.09 2.09 0 0 1 2.077-2.092h2.16l.145-28.623-13.542-11.29h-16.74v39.955h4.174a2.09 2.09 0 0 1 2.077 2.091 2.09 2.09 0 0 1-2.077 2.091H46.379a2.09 2.09 0 0 1-2.077-2.091 2.09 2.09 0 0 1 2.077-2.091H63.41V4.181H14.643v13.213a2.09 2.09 0 0 1-2.077 2.091 2.09 2.09 0 0 1-2.077-2.091V2.09a2.09 2.09 0 0 1 2.077-2.091h52.9a2.09 2.09 0 0 1 2.077 2.091v7.527h17.488c.499 0 .956.167 1.329.481l14.872 12.398c.477.398.747 1.003.768 1.631l-.166 31.696zm-66.11-34.686a2.09 2.09 0 0 1 2.077 2.091 2.09 2.09 0 0 1-2.077 2.09H10.53a2.09 2.09 0 0 1-2.077-2.09 2.09 2.09 0 0 1 2.077-2.091h25.194zm-2.139 11.75a2.104 2.104 0 0 1-2.098 2.07l-25.194-.146a2.064 2.064 0 0 1-2.056-2.112c0-1.15.935-2.07 2.077-2.07h.021l25.193.147c1.143 0 2.077.94 2.057 2.111zm-4.237 9.472c0 1.17-.935 2.091-2.077 2.091H2.077A2.09 2.09 0 0 1 0 42.359a2.09 2.09 0 0 1 2.077-2.091h25.194a2.09 2.09 0 0 1 2.077 2.091zm-16.782 3.742a2.09 2.09 0 0 1 2.077 2.091v5.561h4.174a2.09 2.09 0 0 1 2.077 2.091 2.09 2.09 0 0 1-2.077 2.091h-6.251a2.09 2.09 0 0 1-2.077-2.091v-7.652a2.09 2.09 0 0 1 2.077-2.091zm20.105 5.081c5.109 0 9.263 4.224 9.263 9.408 0 5.185-4.154 9.409-9.263 9.409-2.493 0-4.84-.983-6.647-2.76-1.807-1.798-2.783-4.14-2.783-6.649 0-2.508.997-4.851 2.783-6.649a9.389 9.389 0 0 1 6.647-2.759zm0 14.635c2.824 0 5.109-2.342 5.109-5.227 0-2.885-2.285-5.227-5.109-5.227-2.867 0-5.276 2.384-5.276 5.227 0 2.844 2.409 5.227 5.276 5.227zM90.66 40.623H73.753a2.09 2.09 0 0 1-2.077-2.091V21.388a2.09 2.09 0 0 1 2.077-2.091h10.655a2.01 2.01 0 0 1 1.392.544l6.251 5.665c.436.398.686.963.686 1.548v11.478a2.09 2.09 0 0 1-2.077 2.091zm-2.077-12.649l-4.985-4.516H75.83v12.984h12.753v-8.468zM83.39 51.182c5.11 0 9.264 4.224 9.264 9.408 0 5.185-4.154 9.409-9.264 9.409-2.492 0-4.839-.983-6.646-2.76-1.807-1.798-2.783-4.14-2.783-6.649 0-2.508.997-4.851 2.783-6.649a9.386 9.386 0 0 1 6.646-2.759zm0 14.635c2.825 0 5.11-2.342 5.11-5.227 0-2.885-2.285-5.227-5.11-5.227-2.866 0-5.275 2.384-5.275 5.227 0 2.844 2.409 5.227 5.275 5.227z"/></symbol><symbol id="cat-icon" viewBox="0 0 39.6 32.9"><style>.st0{fill:#0eaf31}</style><path class="st0" d="M16.9 13.2c-.8 0-1.4.6-1.4 1.4 0 .8.6 1.4 1.4 1.4.8 0 1.4-.6 1.4-1.4 0-.7-.6-1.4-1.4-1.4zm7.2 0c-.8 0-1.4.6-1.4 1.4 0 .8.6 1.4 1.4 1.4.8 0 1.4-.6 1.4-1.4.1-.7-.6-1.4-1.4-1.4zm11.7 6.1l1.7-.4-.5-2.1-1.4.3c-.2-1.2-.5-2.3-.9-3.4 1.2-3.4 1.4-7.3.4-11.2l-.3-1.1-1.1.3c-.5.1-4.5 1.3-6.4 3.1-.3-.2-.6-.3-.9-.5-1.9-.9-3.9-1.4-6-1.4s-4.1.5-6 1.4c-.3.1-.6.3-.9.5-1.9-1.8-5.9-3-6.4-3.1l-1-.2-.2 1.1c-1 3.8-.9 7.8.4 11.2-.4 1.1-.7 2.3-.9 3.4L4 16.8l-.5 2.1 1.7.4c0 2.1.5 4.1 1.3 5.8l-3 .7.5 2.1 3.8-.9c.6.7 1.2 1.4 2 2 2.7 2.2 6.6 3.5 10.7 3.5s8-1.2 10.7-3.5c.8-.6 1.4-1.3 2-2l3.8.9.5-2.1-3-.7c.8-1.7 1.3-3.7 1.3-5.8zM7.7 4.2c1.2.4 3 1.1 4 1.9-.7.6-1.5 1.2-2.1 2-.7.8-1.4 1.7-2 2.6-.3-2-.3-4.3.1-6.5zm11.4 18.9c-.6-.6-.9-1.1-.9-1.4 0-.3 0-.3.2-.3.5-.2 1.4-.2 2.1-.2.7 0 1.6 0 2.1.2.2.1.2.1.2.3 0 .3-.3.9-.9 1.4-.6.5-1.1.8-1.4.8-.3 0-.9-.3-1.4-.8zm13.1 1.5l-4.2-1-.5 2.1 3.3.8c-.3.3-.6.6-1 .9-2.1 1.7-5 2.7-8.2 2.9v-4.4c.9-.3 1.6-.9 1.9-1.3.5-.4 1.5-1.6 1.5-2.9 0-1.1-.6-1.9-1.5-2.3-.7-.3-1.5-.4-2.9-.4s-2.3.1-2.9.4c-1 .4-1.5 1.2-1.5 2.3 0 1.3 1.1 2.5 1.5 2.9.3.3 1 .9 1.9 1.3v4.4c-3.2-.2-6.1-1.2-8.2-2.9-.4-.3-.7-.6-1-.9l3.3-.8-.7-2.1-4.2 1c-.8-1.4-1.3-3-1.3-4.8l5.6 1.3.5-2.1-6-1.4c.4-2.9 1.7-5.8 3.8-8.1 2.5-2.8 5.8-4.4 9.2-4.4 3.4 0 6.7 1.6 9.2 4.4 2.1 2.3 3.4 5.2 3.8 8.1l-6 1.4.5 2.1 5.6-1.3c-.2 1.8-.6 3.4-1.5 4.8zm1.1-13.9c-.6-.9-1.2-1.8-2-2.6-.7-.7-1.4-1.4-2.1-2 1-.8 2.8-1.5 4-1.9.5 2.2.5 4.5.1 6.5z"/></symbol><symbol id="clock-icon"><path fill-rule="evenodd" fill="#DFDFDF" d="M37 74C16.597 74-.001 57.401-.001 36.999-.001 16.597 16.597-.003 37-.003c20.402 0 37.001 16.6 37.001 37.002S57.402 74 37 74zm0-66.129c-16.061 0-29.129 13.066-29.129 29.128 0 16.062 13.068 29.128 29.129 29.128s29.128-13.066 29.128-29.128C66.128 20.937 53.061 7.871 37 7.871zM56.283 41.95H36.609a3.047 3.047 0 0 1-3.047-3.047v-23.04a3.047 3.047 0 1 1 6.094 0v19.993h16.627a3.047 3.047 0 1 1 0 6.094z"/></symbol><symbol id="compare"><path fill-rule="evenodd" d="M0 16.999v-13h5v9h2v-13h5v13h2v-5h5v9H0z"/></symbol><symbol id="dog-icon" viewBox="0 0 39.6 32.9"><style>.st0{fill:#0eaf31}</style><path class="st0" d="M36 9.1c-1.1-1.8-2.7-3.6-3.7-4.5-2.3-2-4.2-2-5.2-1.8-.4.1-.8.2-1.1.4-1.6-1.2-3.6-1.8-6.1-1.8s-4.4.6-6.1 1.8c-.3-.2-.7-.3-1.1-.4-.8-.1-2.7-.2-5 1.8-1.1.9-2.6 2.7-3.8 4.5-1.5 2.5-1.8 4.5-1 6 1 1.8 2.6 2.3 3.9 2.4-.3 1.2-.5 2.5-.5 4 0 2.1.5 3.9 1.4 5.4.8 1.3 2.1 2.3 3.6 3.1 2.9 1.4 6.3 1.5 8.6 1.5s5.8-.2 8.6-1.5c1.5-.7 2.8-1.8 3.6-3.1 1-1.5 1.4-3.3 1.4-5.4 0-1.6-.2-2.8-.5-4 1.3-.1 2.8-.6 3.9-2.4 1-1.4.6-3.5-.9-6zM7.5 15.5c-1.1 0-2-.2-2.7-1.3-.4-.7-.1-2.2 1-3.9 1-1.6 2.4-3.2 3.3-4C10.6 5 11.7 4.9 12.2 5c-1.6 1.9-2.5 4.3-3.3 6.7-.3 1-.7 1.8-1 2.6-.1.3-.3.8-.4 1.2zM20 23.2c-.3 0-.9-.3-1.4-.8-.6-.5-.8-1.1-.8-1.4 0-.3 0-.3.2-.3.5-.2 1.4-.2 2-.2.6 0 1.6 0 2 .2.2.1.2.1.2.3 0 .3-.3.9-.8 1.4-.6.5-1.1.8-1.4.8zm7.7 4.9c-1.6.8-3.8 1.2-6.6 1.3v-4.3c.8-.3 1.5-.9 1.8-1.2.4-.4 1.5-1.6 1.5-2.9 0-1.1-.5-1.9-1.5-2.3-.7-.3-1.5-.4-2.9-.4s-2.2.1-2.9.4c-1 .4-1.5 1.2-1.5 2.3 0 1.3 1 2.5 1.5 2.9.3.3 1 .9 1.8 1.2v4.3c-2.8-.1-5-.5-6.6-1.3-2.6-1.2-3.8-3.4-3.8-6.5 0-2.7.6-4.3 1.5-6.6.3-.8.6-1.7 1-2.7 1.9-5.6 3.9-8.6 9-8.6 5.2 0 7.2 3 9 8.6.3 1 .7 1.9 1 2.7.9 2.3 1.5 3.9 1.5 6.6 0 3.1-1.2 5.3-3.8 6.5zm7.5-14c-.6 1.1-1.5 1.3-2.7 1.3-.1-.4-.3-.8-.5-1.3-.3-.8-.6-1.6-1-2.6-.8-2.4-1.8-4.8-3.3-6.7.5-.1 1.6 0 3.1 1.3.9.8 2.3 2.4 3.3 4 1.1 1.8 1.5 3.3 1.1 4zm-18.8-1.4c-.8 0-1.4.6-1.4 1.4 0 .8.6 1.4 1.4 1.4.8 0 1.4-.6 1.4-1.4 0-.8-.6-1.4-1.4-1.4zm7.1 0c-.8 0-1.4.6-1.4 1.4 0 .8.6 1.4 1.4 1.4.8 0 1.4-.6 1.4-1.4.1-.8-.6-1.4-1.4-1.4z"/></symbol><symbol id="drag-icon" viewBox="0 0 44.1 41.1"><style>.st0{fill:#0eaf31}</style><path class="st0" d="M35.4 18.3l-.5-.5c-2.7-2.3-6.3-3.1-9.7-2.3v-1.7c0-5.1-4.2-9.3-9.3-9.3-5.1 0-9.3 4.2-9.3 9.3v13.3c0 5.1 4.2 9.3 9.3 9.3 2.2 0 4.2-.8 5.8-2 1.9 1.3 4 2 6.2 2 3 0 5.9-1.2 8.1-3.7 3.6-4.1 3.3-10.5-.6-14.4zm-10.2 0c2.5-.9 5.2-.5 7.3 1l-7.3 7.3v-8.3zm-2.7 8.9a6.7 6.7 0 0 1-13.4 0v-5.3h13.3l.1 5.3zm0-8H9.2v-5.3a6.7 6.7 0 0 1 13.4 0v5.3h-.1zm11.4 11.9c-1.4 1.6-3.4 2.6-5.5 2.7-1.8.1-3.5-.3-4.9-1.3.3-.4.5-.8.7-1.2l10.2-10.1c2 2.9 1.9 7-.5 9.9z"/></symbol><symbol id="favorite"><path fill-rule="evenodd" d="M9 15.999l-1.26-1.218C3.06 10.782 0 8.085 0 4.781 0 2.086 2.16-.002 4.95-.002c1.53 0 3.06.696 4.05 1.827.99-1.131 2.52-1.827 4.05-1.827 2.79 0 4.95 2.088 4.95 4.783 0 3.304-3.06 6.001-7.74 10L9 15.999z"/></symbol><symbol id="fish-icon" viewBox="0 0 44.1 32.9"><style>.st0{fill:#0eaf31}</style><path class="st0" d="M42.2 15.5c-.1-.1-1.3-2.6-3.6-5.2C35.5 6.8 31.9 5 28.2 5c-.6 0-1.2 0-1.8.1-.5-.4-1.3-1.1-2.4-1.6-1.7-.8-4.5-1.5-8-.4l-1.5.5 2.9 4.5c-.1.1-.3.1-.4.2-2.3 1.2-4.4 2.8-6 4.1-1.3-2.7-4.1-4.6-7.3-4.6-.4 0-.7 0-1.1.1l-.9.1-.1.9c0 .4-.1.7-.1 1.1 0 2.2.8 4.3 2.3 6-1.5 1.6-2.3 3.7-2.3 6 0 .4 0 .7.1 1.1l.1.9.9.1c.4.1.7.1 1.1.1 3.2 0 6-1.9 7.3-4.7 1.5 1.4 3.7 2.9 6 4.1.1.1.3.1.4.2l-2.9 4.5 1.5.5c1.3.4 2.6.6 3.7.6 1.8 0 3.3-.5 4.4-1 1.2-.5 2-1.2 2.5-1.6.6.1 1.2.1 1.8.1 3.7 0 7.3-1.8 10.5-5.3 2.3-2.5 3.6-5.1 3.6-5.2l.3-.5-.6-.4zM3.9 21.8c.1-1.9.9-3.7 2.4-4.8l1.2-1-1.2-1c-1.5-1.2-2.3-2.9-2.4-4.8 3 .1 5.5 2.6 5.5 5.8 0 3.1-2.4 5.6-5.5 5.8zm19.2-16c-1.3.4-2.5.8-3.6 1.3l-1.3-2c2.1-.4 3.8.1 4.9.7zM18.2 27l1.3-2c1.1.5 2.3 1 3.6 1.3-1.1.5-2.8 1-4.9.7zm10-2.4c-2.9 0-6.5-1.1-10.1-3-3-1.6-5.2-3.4-6.4-4.7v-.8-.8c1.1-1.2 3.4-3.1 6.4-4.7 3.6-2 7.2-3 10.1-3 .8 0 1.5.1 2.2.3-1.6 2.4-2.5 5.3-2.5 8.3 0 3 .9 5.9 2.5 8.3-.7 0-1.5.1-2.2.1zm4.5-1.2c-1.6-2.1-2.4-4.7-2.4-7.4s.9-5.3 2.4-7.4c3.8 2 6.3 5.9 7.1 7.4-.8 1.4-3.3 5.4-7.1 7.4zm0-8h2.4V13h-2.4v2.4z"/></symbol><symbol id="icon-chevron-down" viewBox="0 0 12.03 7"><path id="Forma_1_copy_13" data-name="Forma 1 copy 13" class="cls-1" d="M1081.41 400.748l-5.16-5.283a.872.872 0 0 1 0-1.217.828.828 0 0 1 1.19 0l4.56 4.675 4.57-4.675a.828.828 0 0 1 1.19 0 .891.891 0 0 1 0 1.217l-5.16 5.283a.842.842 0 0 1-.6.252.82.82 0 0 1-.59-.252z" transform="translate(-1076 -394)"/></symbol><symbol id="icon-chevron-left" viewBox="0 0 7.031 12"><path id="Forma_1_copy_15" data-name="Forma 1 copy 15" class="cls-1" d="M873.252 2116.39l5.283-5.14a.872.872 0 0 1 1.217 0 .817.817 0 0 1 0 1.18l-4.675 4.56 4.675 4.55a.828.828 0 0 1 0 1.19.891.891 0 0 1-1.217 0l-5.283-5.15a.82.82 0 0 1-.252-.59.842.842 0 0 1 .252-.6z" transform="translate(-873 -2111)"/></symbol><symbol id="icon-chevron-right" viewBox="0 0 6.97 12"><path id="Forma_1_copy_14" data-name="Forma 1 copy 14" class="cls-1" d="M1336.75 2116.39l-5.26-5.14a.863.863 0 0 0-1.21 0 .81.81 0 0 0 0 1.18l4.65 4.56-4.65 4.55a.822.822 0 0 0 0 1.19.883.883 0 0 0 1.21 0l5.26-5.15a.81.81 0 0 0 .25-.59.832.832 0 0 0-.25-.6z" transform="translate(-1330.03 -2111)"/></symbol><symbol id="icon-file" viewBox="0 0 60 60"><path d="M42.5 22h-25a1 1 0 1 0 0 2h25a1 1 0 1 0 0-2zM17.5 16h10a1 1 0 1 0 0-2h-10a1 1 0 1 0 0 2zM42.5 30h-25a1 1 0 1 0 0 2h25a1 1 0 1 0 0-2zM42.5 38h-25a1 1 0 1 0 0 2h25a1 1 0 1 0 0-2zM42.5 46h-25a1 1 0 1 0 0 2h25a1 1 0 1 0 0-2z"/><path d="M38.914 0H6.5v60h47V14.586L38.914 0zm.586 3.414L50.086 14H39.5V3.414zM8.5 58V2h29v14h14v42h-43z"/></symbol><symbol id="icon-pdf" viewBox="0 0 512 512"><path d="M494.479 138.557L364.04 3.018A9.853 9.853 0 0 0 356.945 0h-194.41c-21.757 0-39.458 17.694-39.458 39.442v137.789H44.29c-16.278 0-29.521 13.239-29.521 29.513v147.744C14.769 370.761 28.012 384 44.29 384h78.787v88.627c0 21.71 17.701 39.373 39.458 39.373h295.238c21.757 0 39.458-17.653 39.458-39.351V145.385a9.85 9.85 0 0 0-2.752-6.828zM359.385 26.581l107.079 111.265H359.385V26.581zM44.29 364.308c-5.42 0-9.828-4.405-9.828-9.82V206.744c0-5.415 4.409-9.821 9.828-9.821h265.882c5.42 0 9.828 4.406 9.828 9.821v147.744c0 5.415-4.409 9.82-9.828 9.82H44.29zm433.248 108.341c0 10.84-8.867 19.659-19.766 19.659H162.535c-10.899 0-19.766-8.828-19.766-19.68V384h167.403c16.278 0 29.521-13.239 29.521-29.512V206.744c0-16.274-13.243-29.513-29.521-29.513H142.769V39.442c0-10.891 8.867-19.75 19.766-19.75h177.157v128c0 5.438 4.409 9.846 9.846 9.846h128v315.111z"/><path d="M132.481 249.894c-3.269-4.25-7.327-7.01-12.173-8.279-3.154-.846-9.923-1.269-20.308-1.269H72.596v84.577h17.077v-31.904h11.135c7.731 0 13.635-.404 17.712-1.212 3-.654 5.952-1.99 8.856-4.01 2.904-2.019 5.298-4.798 7.183-8.336 1.885-3.538 2.827-7.904 2.827-13.096-.001-6.731-1.636-12.221-4.905-16.471zm-14.625 23.279c-1.288 1.885-3.067 3.269-5.337 4.154s-6.769 1.327-13.5 1.327h-9.346v-24h8.25c6.154 0 10.25.192 12.288.577 2.769.5 5.058 1.75 6.865 3.75 1.808 2 2.712 4.539 2.712 7.615.001 2.5-.644 4.692-1.932 6.577zM219.481 263.452c-1.846-5.404-4.539-9.971-8.077-13.702s-7.789-6.327-12.75-7.789c-3.692-1.077-9.058-1.615-16.096-1.615h-31.212v84.577h32.135c6.308 0 11.346-.596 15.115-1.789 5.039-1.615 9.039-3.865 12-6.75 3.923-3.808 6.942-8.788 9.058-14.942 1.731-5.039 2.596-11.039 2.596-18 0-7.923-.923-14.586-2.769-19.99zm-16.616 34.731c-1.154 3.789-2.644 6.51-4.471 8.163-1.827 1.654-4.125 2.827-6.894 3.519-2.115.539-5.558.808-10.327.808h-12.75v-56.019h7.673c6.961 0 11.635.269 14.019.808 3.192.692 5.827 2.019 7.904 3.981 2.077 1.962 3.692 4.692 4.846 8.192s1.731 8.519 1.731 15.058c0 6.538-.577 11.701-1.731 15.49zM294.827 254.654v-14.308h-57.981v84.577h17.077v-35.942h35.308v-14.308h-35.308v-20.019z"/></symbol><symbol id="mouse-icon" viewBox="0 0 39.6 32.9"><style>.st0{fill:#0eaf31}</style><path class="st0" d="M8.6 1.5c-3.1.5-5.6 3-6 6.1-.1.4-.1 1.5-.1 1.9.3 2.1 1.4 3.9 3.1 5.1.4.2 1.3.6 1.4.6 0 0 0 .1-.1.3-.2.5-.4 1.3-.5 1.9-.1.3-.1.6-.1.6s0 .1-.1.1c0 0-.4-.1-.8-.3-.7-.2-.8-.3-1.1-.3-.2 0-.3 0-.5.1s-.5.3-.6.5c-.1.2-.1.2-.1.5s0 .3.1.5.3.4.4.5c.1 0 .6.2 1.2.4l1.2.5v.7c0 1.3.2 2.5.5 3.6 0 .1.1.3.1.3-.1 0-2.7.8-2.8.8-.2.1-.4.4-.5.6-.1.2-.1.6 0 .8.2.5.6.8 1.1.8.2 0 .5-.1 1.7-.4.8-.2 1.5-.4 1.6-.5 0 0 .1.1.3.2 1.4 1.8 3.5 3.1 6.2 3.8 1.2.3 2.6.5 4.1.6.8.1 3.5 0 4.3 0 3.7-.3 6.4-1.2 8.5-2.8.6-.4 1.4-1.3 1.8-1.8l.1-.1 1.5.4c.8.2 1.6.4 1.7.5.2 0 .5 0 .7-.1.2-.1.5-.4.6-.6.1-.3.1-.7 0-.9-.1-.2-.3-.4-.5-.5-.1 0-.8-.3-1.5-.5s-1.3-.4-1.3-.4 0-.1.1-.3c.3-1.1.5-2 .5-3.3v-.9l1.1-.4c1.2-.4 1.3-.4 1.5-.7.4-.6.2-1.4-.5-1.7-.2-.1-.2-.1-.5-.1s-.3 0-1.1.3c-.5.2-.8.3-.8.3s0-.1-.1-.3c-.1-.5-.3-1.4-.5-2-.1-.3-.2-.5-.2-.5s.1 0 .2-.1c2.2-.9 3.8-3 4.2-5.4-.1-.6-.1-1.6-.1-2-.2-1.8-1.1-3.6-2.5-4.7-1.1-.9-2.4-1.5-3.7-1.6H30c-.9.1-2 .5-2.8 1-.8.5-1.6 1.3-2.1 2l-.1.2-.4-.2c-.8-.4-1.9-.7-2.8-.8-.4-.1-.6-.1-1.5-.1-1.1 0-1.3 0-2.1.2-.7.2-1.7.5-2.3.8-.2.1-.2.1-.2 0-.1-.1-.5-.7-.8-1-1.1-1.2-2.7-2-4.3-2.2h-2zm1.9 2.4c1.4.3 2.6 1.2 3.3 2.4.1.3.1.3.2.7.1 1.9.6 3.4 1.3 4.9.9 1.7 2.2 3 3.7 3.4.8.2 1.8.2 2.6 0 1.8-.5 3.3-2.2 4.3-4.8.4-1 .7-2.5.7-3.6 0-.4 0-.4.1-.6.3-.7.9-1.3 1.6-1.8.5-.2 1.1-.5 1.7-.6.4-.1 1.3-.1 1.8 0 .7.1 1.4.5 1.9.9.6.4 1.1 1.1 1.5 1.7.2.3.4.9.4 1.3.1.4.1 1.1 0 1.6-.2 1-.6 1.9-1.3 2.6-.7.7-1.4 1.1-2.4 1.3-.2 0-.4.1-.5.2-.2.1-.4.3-.5.5-.1.2-.1.2-.1.5s0 .3.2.9c.3.6.5 1.4.7 2.1.2.6.3 1.4.3 1.4s-.9.3-2 .7c-1.1.4-2 .7-2.1.7-.2.1-.4.3-.5.5-.1.2-.1.2-.1.5s0 .4.1.5c.1.2.3.4.6.6.2.1.2.1.5.1s.3 0 2-.6c1-.3 1.7-.6 1.7-.6s-.1 1.1-.1 1.4c-.1.4-.2.9-.3 1.3-.1.2-.1.3-.1.3s-.7-.2-1.5-.4c-1.4-.4-1.5-.4-1.8-.4-.3 0-.3 0-.5.1s-.4.3-.6.6c-.1.2-.1.2-.1.5s0 .3.1.5.3.4.5.5c.1 0 .6.2 1.3.4.6.2 1.1.3 1.1.3.1.1-.8.8-1.3 1.1-1.7 1.2-4.1 1.8-7.3 2h-.2v-2.2h.1c1.8-.4 3-1.4 3.4-2.8.1-.4.1-1 0-1.4-.3-1-1.1-1.9-2.3-2.4-1.7-.7-4-.6-5.5.4-1.8 1.2-2.1 3.3-.7 4.8.6.6 1.5 1.1 2.6 1.3h.1v2.2h-.2c-2.1-.1-3.6-.4-5-.8-1.5-.5-2.6-1.1-3.5-2l-.3-.3 1.2-.3c.6-.2 1.2-.4 1.3-.4.2-.1.4-.4.5-.6.1-.1.1-.2.1-.5s0-.3-.1-.5-.3-.5-.6-.6c-.1 0-.3-.1-.4-.1-.2 0-.3 0-1.7.4-.8.2-1.5.4-1.5.4s-.1 0-.2-.4c-.2-.7-.4-1.5-.4-2.3V21s.8.3 1.7.6c1.6.5 1.7.6 2 .6.2 0 .3 0 .5-.1.3-.1.4-.3.6-.6.1-.2.1-.2.1-.5s0-.3-.1-.5c-.1-.3-.4-.5-.6-.6-.1 0-1.1-.4-2.1-.7-1-.3-1.9-.6-1.9-.6s.2-.9.3-1.4c.2-.7.4-1.3.7-2.1.2-.6.2-.6.2-.9 0-.2 0-.3-.1-.5s-.3-.5-.5-.6c-.1 0-.3-.1-.6-.2-.5.2-.9.1-1.3-.2-1.2-.7-2-1.8-2.3-3.2-.1-.5-.1-1.3 0-1.8.2-1 .6-1.8 1.3-2.5C7 4.4 8 4 9.2 3.8c.2 0 1 0 1.3.1zM20.9 6c1 .1 2 .4 2.9.8l.4.2v.2c-.3 2.9-1.6 5.3-3.3 5.8-.6.2-1 .1-1.6-.1-1.1-.5-2-1.9-2.6-3.8-.2-.6-.4-1.7-.4-2.1l.4-.2c1.4-.7 2.8-.9 4.2-.8zm.3 16.8c.8.2 1.4.7 1.4 1.1 0 .4-.6.9-1.4 1.1-.3.1-.4.1-1 .1s-.7 0-.9-.1c-.9-.2-1.5-.7-1.5-1.1 0-.5.8-1 1.7-1.2.5 0 1.3 0 1.7.1z"/><path class="st0" d="M14.1 15.5c-.4.1-.7.3-1 .5-.7.9-.3 2.1.7 2.5.2.1.3.1.6.1s.4 0 .6-.1c.6-.3.9-.8.9-1.4 0-.5-.2-.8-.5-1.1-.3-.4-.8-.6-1.3-.5zM25.6 15.6c-.4.1-.8.4-.9.8-.1.2-.1.3-.1.6s0 .4.1.6c.2.7.9 1.1 1.6 1.1.3 0 .5-.1.8-.3.8-.5.9-1.7.3-2.4-.2-.2-.4-.3-.7-.4-.4-.1-.8-.1-1.1 0z"/></symbol><symbol id="orh-icon" viewBox="0 0 22 22"><path id="Rectangle_1646_copy_4" data-name="Rectangle 1646 copy 4" class="cls-1" d="M1508 384h22v4h-22v-4zm0 9h22v4h-22v-4zm0 9h22v4h-22v-4z" transform="translate(-1508 -384)"/></symbol><symbol id="orv-icon" viewBox="0 0 22 22"><path id="Rectangle_1646_copy_4" data-name="Rectangle 1646 copy 4" class="cls-1" d="M1471 384h4v4h-4v-4zm9 0h4v4h-4v-4zm9 0h4v4h-4v-4zm-18 9h4v4h-4v-4zm9 0h4v4h-4v-4zm9 0h4v4h-4v-4zm-18 9h4v4h-4v-4zm9 0h4v4h-4v-4zm9 0h4v4h-4v-4z" transform="translate(-1471 -384)"/></symbol><symbol id="parrot-icon" viewBox="0 0 44.1 41.1"><style>.st0{fill:#0eaf31}</style><path class="st0" d="M30 8.5h-.7c-1.1-1.6-2.9-2.7-5-2.8C22.9 5.2 22 4 22 2.6c0-.6-.5-1.1-1.1-1.1-.6 0-1.1.5-1.1 1.1 0 1.4.5 2.7 1.4 3.6-1.1 0-1.9-.9-1.9-2 0-.6-.5-1.1-1.1-1.1-.6 0-1.1.5-1.1 1.1 0 1.5.8 2.8 2 3.5-1 1.1-1.6 2.6-1.6 4.2V16c-.4.2-.8.4-1.2.7-1.3 1-2.2 2.4-2.4 3.9l-1.2 7.5L8.4 31c-.8.6-1.2 1.5-.8 2.5.3.8 1.1 1.3 2 1.3h.3l1.7-.2v.1c-.2 1.3.5 2.5 1.8 3 .4.1.7.2 1.1.2.9 0 1.8-.4 2.3-1.2l2.3-3.2 1.1-.2v4.1c0 .6.5 1.1 1.1 1.1h2.6c.6 0 1.1-.5 1.1-1.1 0-.6-.5-1.1-1.1-1.1h-1.5v-3.7c4.6-1.6 8-5.9 8-10.9v-2.3c1.7-.5 3.1-1.6 3.9-3.1l.2-.4h.9c.6 0 1.1-.5 1.1-1.1 0-3.4-2.9-6.3-6.5-6.3zM11.9 32.3l-1.9.2 2.1-1.4-.2 1.2zm3 3.1c-.3.4-.6.3-.8.2-.1-.1-.5-.2-.4-.7L16 21c.3-2.1 2.3-3.5 4.5-3.3 1.4.2 2.6 1 3.1 2.3.6 1.3.4 2.7-.4 3.8l-8.3 11.6zm13.2-13.6c0 4.4-3.1 8.1-7.2 9.1l4.1-5.8c1.2-1.7 1.5-4 .6-5.9-.9-2-2.7-3.3-4.8-3.6-.4 0-.7-.1-1.1 0V12c0-2.3 1.9-4.1 4.2-4.1 2.3 0 4.2 1.9 4.2 4.1v9.8zm2.2-4.6V16h1.5c-.4.5-.9.9-1.5 1.2zm0-3.4V12c0-.4 0-.9-.1-1.3 1.9.1 3.5 1.4 4 3.1h-3.9zm-5.1-3.1c-.6 0-1.1.5-1.1 1.1 0 .6.5 1.1 1.1 1.1s1.1-.5 1.1-1.1c0-.6-.5-1.1-1.1-1.1z"/></symbol><symbol id="phone-icon" viewBox="0 0 8.782 16.938"><path id="Forma_1_copy_2" data-name="Forma 1 copy 2" class="cls-1" d="M803.683 24.029h-6.469a1.159 1.159 0 0 0-1.155 1.166V39.8a1.159 1.159 0 0 0 1.155 1.165h6.469a1.16 1.16 0 0 0 1.154-1.165V25.2a1.16 1.16 0 0 0-1.154-1.171zm-4.862.708h3.3a.308.308 0 0 1 0 .561h-3.3a.282.282 0 0 1 0-.561zm1.68 14.513a.743.743 0 1 1 .735-.744.742.742 0 0 1-.736.743zm3.471-2.267h-7.048V26h7.048v10.983z" transform="translate(-796.062 -24.031)"/></symbol><symbol id="question" viewBox="0 0 92 92"><path d="M45.386.004C19.983.344-.333 21.215.005 46.619c.34 25.393 21.209 45.715 46.611 45.377 25.398-.342 45.718-21.213 45.38-46.615-.34-25.395-21.21-45.716-46.61-45.377zM45.25 74l-.254-.004c-3.912-.116-6.67-2.998-6.559-6.852.109-3.788 2.934-6.538 6.717-6.538l.227.004c4.021.119 6.748 2.972 6.635 6.937C51.904 71.346 49.123 74 45.25 74zm16.455-32.659c-.92 1.307-2.943 2.93-5.492 4.916l-2.807 1.938c-1.541 1.198-2.471 2.325-2.82 3.434-.275.873-.41 1.104-.434 2.88l-.004.451H39.43l.031-.907c.131-3.728.223-5.921 1.768-7.733 2.424-2.846 7.771-6.289 7.998-6.435.766-.577 1.412-1.234 1.893-1.936 1.125-1.551 1.623-2.772 1.623-3.972a7.74 7.74 0 0 0-1.471-4.576c-.939-1.323-2.723-1.993-5.303-1.993-2.559 0-4.311.812-5.359 2.478-1.078 1.713-1.623 3.512-1.623 5.35v.457H27.936l.02-.477c.285-6.769 2.701-11.643 7.178-14.487C37.947 18.918 41.447 18 45.531 18c5.346 0 9.859 1.299 13.412 3.861 3.6 2.596 5.426 6.484 5.426 11.556 0 2.837-.896 5.502-2.664 7.924z"/></symbol><symbol id="repeat" viewBox="0 0 25 29"><path class="cls-1" d="M5.09 5.75a10.44 10.44 0 0 1 14.17-.4l-3.24.13a.791.791 0 0 0-.73.83.782.782 0 0 0 .76.77h.02l4.98-.19a.783.783 0 0 0 .73-.8v-.1L21.6.77a.78.78 0 0 0-.79-.77.77.77 0 0 0-.72.83l.12 3.27a11.861 11.861 0 0 0-16.13.47A13.651 13.651 0 0 0 .35 17.42a.753.753 0 0 0 .73.61.554.554 0 0 0 .18-.02.81.81 0 0 0 .55-.97A12.024 12.024 0 0 1 5.09 5.75zm19.56 5.83a.751.751 0 0 0-.91-.59.81.81 0 0 0-.55.97 12 12 0 0 1-3.28 11.29 10.433 10.433 0 0 1-14.26.32l3.28-.31a.791.791 0 0 0 .68-.88.764.764 0 0 0-.82-.72l-4.96.48a.783.783 0 0 0-.68.87l.44 5.26a.779.779 0 0 0 .75.73.17.17 0 0 0 .07-.01.783.783 0 0 0 .68-.87l-.27-3.2a11.98 11.98 0 0 0 7.17 2.9c.21.01.42.01.63.01a11.912 11.912 0 0 0 8.3-3.4 13.658 13.658 0 0 0 3.73-12.85z"/></symbol><symbol id="search-icon" viewBox="0 0 23.6 21.8"><style>.st0{fill:#020202}</style><path class="st0" d="M21.1 17.9l-4-3.9-.1-.1c.8-1.2 1.2-2.6 1.2-4.1 0-4.1-3.3-7.4-7.4-7.4-4.1 0-7.4 3.3-7.4 7.4 0 4.1 3.3 7.4 7.4 7.4 1.5 0 2.9-.4 4.1-1.2l.1.1 3.9 3.9c.6.6 1.5.6 2.1 0 .6-.5.6-1.5.1-2.1zm-10.2-3.2c-2.7 0-4.8-2.2-4.8-4.8 0-2.7 2.2-4.8 4.8-4.8 2.7 0 4.8 2.2 4.8 4.8 0 2.7-2.1 4.8-4.8 4.8z"/></symbol><symbol id="social-icon-fa"><path fill-rule="evenodd" d="M14.999.002C6.73.002.003 6.729.003 14.998S6.73 29.994 14.999 29.994s14.996-6.727 14.996-14.996S23.268.002 14.999.002zm3.73 15.525h-2.44v8.696h-3.615v-8.696h-1.719v-3.074h1.719v-1.988c0-1.424.676-3.649 3.648-3.649L19 6.827V9.81h-1.945c-.316 0-.766.159-.766.837v1.806h2.755l-.315 3.074z"/></symbol><symbol id="social-icon-inst"><path fill-rule="evenodd" d="M14.999 29.994C6.731 29.994.003 23.267.003 14.998S6.731.002 14.999.002c8.269 0 14.996 6.727 14.996 14.996s-6.727 14.996-14.996 14.996zm8.529-16.745V9.766a3.3 3.3 0 0 0-3.297-3.296H9.767a3.299 3.299 0 0 0-3.296 3.296v10.465a3.3 3.3 0 0 0 3.296 3.297h10.464a3.3 3.3 0 0 0 3.297-3.297v-6.982zm-3.298 8.615H9.766c-.901 0-1.634-.73-1.634-1.633v-6.982h2.546a4.628 4.628 0 0 0-.343 1.749 4.67 4.67 0 0 0 4.664 4.665 4.67 4.67 0 0 0 4.665-4.665c0-.618-.125-1.209-.346-1.749h2.547v6.982c0 .903-.733 1.633-1.635 1.633zm-1.568-13.42l2.515-.008.377-.001v2.891l-2.882.01-.01-2.892zM14.999 18a3.005 3.005 0 0 1-3.002-3.002c0-.654.212-1.257.567-1.75a3 3 0 0 1 2.435-1.252c1.002 0 1.888.496 2.435 1.253.354.492.568 1.096.568 1.749A3.007 3.007 0 0 1 14.999 18z"/></symbol><symbol id="social-icon-ok"><path fill-rule="evenodd" d="M15 29.998C6.716 29.998.001 23.283.001 14.999.001 6.716 6.716 0 15 0s14.999 6.716 14.999 14.999c0 8.284-6.715 14.999-14.999 14.999zm.022-25.437a5.291 5.291 0 0 0-5.301 5.272c-.017 2.891 2.351 5.285 5.237 5.295 2.917.01 5.3-2.329 5.315-5.216.015-2.953-2.33-5.343-5.251-5.351zm6 11.108c-.299-.487-.819-.693-1.376-.549a2.155 2.155 0 0 0-.767.395c-2.337 1.573-5.535 1.528-7.863-.071a2.489 2.489 0 0 0-.359-.212c-.646-.305-1.267-.163-1.637.367-.433.62-.377 1.222.17 1.747.141.136.301.253.456.375 1.249.977 2.709 1.375 4.327 1.544-.115.123-.188.207-.267.285-1.186 1.191-2.372 2.382-3.562 3.569-.246.244-.422.519-.44.877-.025.531.303 1.059.82 1.309.486.235.984.16 1.403-.253.933-.92 1.86-1.844 2.773-2.784.228-.234.352-.286.611-.016.889.93 1.813 1.827 2.72 2.739.237.239.503.408.845.432.54.037 1.09-.308 1.335-.833.225-.479.14-.992-.268-1.404-1.198-1.212-2.406-2.414-3.607-3.622-.084-.083-.147-.155-.281-.301.886-.105 1.78-.265 2.597-.582.863-.335 1.641-.814 2.287-1.478.421-.433.426-.977.083-1.534zm-6.008-3.238a2.574 2.574 0 0 1-2.601-2.559 2.578 2.578 0 0 1 2.588-2.612 2.573 2.573 0 0 1 2.581 2.58 2.568 2.568 0 0 1-2.568 2.591z"/></symbol><symbol id="social-icon-vk"><path fill-rule="evenodd" d="M15 0C6.717 0 .001 6.715.001 14.999S6.717 29.998 15 29.998c8.284 0 14.999-6.715 14.999-14.999S23.284 0 15 0zm7.609 16.622c.699.682 1.438 1.325 2.066 2.078.278.334.54.679.74 1.066.284.552.027 1.159-.468 1.191h-3.072c-.794.066-1.425-.254-1.958-.797-.425-.432-.819-.895-1.229-1.341a2.851 2.851 0 0 0-.553-.493c-.419-.272-.783-.189-1.023.249-.244.445-.3.938-.324 1.434-.033.725-.252.914-.979.948-1.553.073-3.027-.163-4.397-.946-1.208-.691-2.144-1.666-2.959-2.77-1.587-2.152-2.803-4.514-3.895-6.943-.246-.548-.066-.841.538-.852a86.18 86.18 0 0 1 3.008-.001c.409.006.679.24.835.625a18.7 18.7 0 0 0 2.039 3.779c.222.314.449.626.771.847.356.245.628.164.795-.234a2.58 2.58 0 0 0 .178-.793c.079-.927.089-1.854-.049-2.778-.086-.578-.411-.951-.987-1.06-.294-.055-.251-.164-.108-.332.248-.289.48-.468.943-.468l3.472-.001c.548.107.67.353.745.903l.003 3.859c-.007.213.107.846.49.985.307.102.509-.144.693-.339.832-.883 1.425-1.926 1.956-3.006.235-.476.437-.968.634-1.461.146-.365.373-.545.785-.539l3.343.004c.098 0 .198.001.296.018.563.096.718.339.543.889-.274.863-.807 1.582-1.329 2.304-.558.771-1.153 1.517-1.707 2.293-.507.709-.467 1.066.164 1.682z"/></symbol><symbol id="star-icon" viewBox="0 0 16 15"><path id="Forma_1" data-name="Forma 1" class="cls-1" d="M405.647 1171.79a1.1 1.1 0 0 0 .29-1.15 1.126 1.126 0 0 0-.926-.76l-3.871-.55a.509.509 0 0 1-.381-.27l-1.731-3.44a1.162 1.162 0 0 0-2.056 0l-1.732 3.44a.509.509 0 0 1-.381.27l-3.871.55a1.119 1.119 0 0 0-.636 1.92l2.8 2.67a.491.491 0 0 1 .146.44l-.661 3.77a1.084 1.084 0 0 0 .25.91 1.165 1.165 0 0 0 1.414.27l3.462-1.78a.554.554 0 0 1 .471 0l3.463 1.78a1.125 1.125 0 0 0 .533.14 1.154 1.154 0 0 0 .88-.41 1.077 1.077 0 0 0 .25-.91l-.661-3.77a.488.488 0 0 1 .146-.44z" transform="translate(-390 -1165)"/></symbol><symbol id="tab-icon-01" viewBox="0 0 24 25"><path id="Forma_1" data-name="Forma 1" class="cls-1" d="M479.843 1580.81a.735.735 0 0 1 0-.65l.932-1.91a2.167 2.167 0 0 0-.936-2.88l-1.877-1a.745.745 0 0 1-.381-.52l-.367-2.1a2.177 2.177 0 0 0-2.452-1.78l-2.1.3a.739.739 0 0 1-.617-.2l-1.526-1.48a2.176 2.176 0 0 0-3.032 0l-1.527 1.48a.736.736 0 0 1-.616.2l-2.1-.3a2.179 2.179 0 0 0-2.453 1.78l-.367 2.1a.74.74 0 0 1-.38.52l-1.877 1a2.168 2.168 0 0 0-.937 2.88l.933 1.91a.735.735 0 0 1 0 .65l-.933 1.91a2.168 2.168 0 0 0 .937 2.88l1.877 1a.738.738 0 0 1 .38.53l.367 2.09a2.168 2.168 0 0 0 2.141 1.8 1.647 1.647 0 0 0 .312-.02l2.1-.3a.739.739 0 0 1 .617.2l1.526 1.48a2.163 2.163 0 0 0 3.032 0l1.526-1.48a.739.739 0 0 1 .617-.2l2.1.3a2.169 2.169 0 0 0 2.452-1.78l.367-2.09a.742.742 0 0 1 .381-.53l1.877-1a2.167 2.167 0 0 0 .936-2.88zm-.681 3.52l-1.876 1a2.148 2.148 0 0 0-1.125 1.55l-.367 2.09a.733.733 0 0 1-.83.6l-2.1-.3a2.191 2.191 0 0 0-1.822.6l-1.526 1.47a.732.732 0 0 1-1.026 0l-1.527-1.47a2.16 2.16 0 0 0-1.51-.62c-.1 0-.207.01-.311.02l-2.1.3a.733.733 0 0 1-.83-.6l-.367-2.09a2.148 2.148 0 0 0-1.125-1.55l-1.877-1a.742.742 0 0 1-.317-.98l.933-1.91a2.152 2.152 0 0 0 0-1.91l-.933-1.91a.742.742 0 0 1 .317-.98l1.877-.99a2.186 2.186 0 0 0 1.125-1.55l.367-2.1a.733.733 0 0 1 .83-.6l2.1.3a2.182 2.182 0 0 0 1.821-.59l1.527-1.48a.732.732 0 0 1 1.026 0l1.526 1.48a2.184 2.184 0 0 0 1.821.59l2.1-.3a.732.732 0 0 1 .829.6l.368 2.1a2.186 2.186 0 0 0 1.125 1.55l1.876.99a.74.74 0 0 1 .317.98l-.933 1.91a2.159 2.159 0 0 0 0 1.91l.933 1.91a.74.74 0 0 1-.316.98zm-4.892-9.12a.724.724 0 0 0-1.02 0l-9.52 9.53a.721.721 0 0 0 1.02 1.02l9.52-9.53a.721.721 0 0 0 0-1.02zm-8.155-1.22a2.645 2.645 0 1 0 2.644 2.65 2.651 2.651 0 0 0-2.644-2.65zm0 3.85a1.205 1.205 0 1 1 1.2-1.2 1.2 1.2 0 0 1-1.2 1.2zm5.77 3.85a2.645 2.645 0 1 0 2.645 2.65 2.652 2.652 0 0 0-2.645-2.65zm0 3.85a1.205 1.205 0 1 1 1.2-1.2 1.2 1.2 0 0 1-1.2 1.2z" transform="translate(-457 -1568)"/></symbol><symbol id="tab-icon-02" viewBox="0 0 21 21"><path class="cls-1" d="M20.278 10.83a.675.675 0 0 1 0-.81l.373-.52a1.739 1.739 0 0 0 .281-1.42 1.757 1.757 0 0 0-.895-1.14l-.57-.3a.689.689 0 0 1-.369-.73l.105-.63a1.734 1.734 0 0 0-.373-1.39 1.807 1.807 0 0 0-1.312-.65l-.65-.02a.709.709 0 0 1-.653-.5l-.18-.61A1.791 1.791 0 0 0 14.314.84a1.9 1.9 0 0 0-.706.14l-.6.25a.722.722 0 0 1-.812-.17l-.435-.48A1.818 1.818 0 0 0 9.08.6l-.421.49a.745.745 0 0 1-.812.19l-.6-.24a1.782 1.782 0 0 0-2.4 1.15l-.171.61a.7.7 0 0 1-.646.51l-.645.04a1.786 1.786 0 0 0-1.3.67 1.706 1.706 0 0 0-.351 1.39l.118.63a.7.7 0 0 1-.355.74l-.566.31a1.739 1.739 0 0 0-.878 1.15 1.719 1.719 0 0 0 .3 1.41l.382.51a.692.692 0 0 1 0 .82l-.373.52a1.72 1.72 0 0 0-.281 1.41 1.778 1.778 0 0 0 .895 1.15l.571.3a.688.688 0 0 1 .368.73l-.109.63a1.734 1.734 0 0 0 .373 1.39 1.807 1.807 0 0 0 1.312.65l.649.02a.718.718 0 0 1 .654.51l.18.61a1.794 1.794 0 0 0 1.721 1.26 1.9 1.9 0 0 0 .706-.14l.6-.25a.726.726 0 0 1 .812.18l.434.47a1.819 1.819 0 0 0 2.682-.02l.421-.49a.745.745 0 0 1 .812-.19l.6.24a1.782 1.782 0 0 0 2.4-1.15l.171-.61a.7.7 0 0 1 .646-.51l.645-.04a1.811 1.811 0 0 0 1.3-.66 1.741 1.741 0 0 0 .351-1.4l-.118-.63a.681.681 0 0 1 .355-.73l.566-.31a1.757 1.757 0 0 0 .878-1.16 1.727 1.727 0 0 0-.3-1.41zm-.365 1.7a.69.69 0 0 1-.351.46l-.566.31a1.744 1.744 0 0 0-.891 1.85l.119.62a.68.68 0 0 1-.141.56.736.736 0 0 1-.517.27l-.646.03a1.79 1.79 0 0 0-1.623 1.29l-.172.61a.711.711 0 0 1-.688.51.646.646 0 0 1-.273-.05l-.6-.24a1.983 1.983 0 0 0-.68-.13 1.822 1.822 0 0 0-1.352.6l-.425.48a.728.728 0 0 1-.54.24.7.7 0 0 1-.531-.23l-.435-.48a1.807 1.807 0 0 0-1.334-.58 1.879 1.879 0 0 0-.706.14l-.6.25a.7.7 0 0 1-.281.06.716.716 0 0 1-.685-.51l-.18-.61a1.78 1.78 0 0 0-1.641-1.26l-.65-.03a.728.728 0 0 1-.522-.25.688.688 0 0 1-.149-.56l.11-.63a1.73 1.73 0 0 0-.922-1.83l-.57-.3a.685.685 0 0 1-.356-.46.665.665 0 0 1 .11-.56l.373-.52a1.725 1.725 0 0 0-.018-2.05l-.382-.51a.658.658 0 0 1-.118-.56.693.693 0 0 1 .351-.46l.566-.31a1.741 1.741 0 0 0 .891-1.85l-.114-.61a.67.67 0 0 1 .14-.56.7.7 0 0 1 .518-.27l.645-.04a1.781 1.781 0 0 0 1.624-1.28l.171-.62a.713.713 0 0 1 .689-.51.641.641 0 0 1 .272.05l.6.24a1.983 1.983 0 0 0 .68.13 1.822 1.822 0 0 0 1.352-.6l.425-.48a.726.726 0 0 1 .54-.24.706.706 0 0 1 .531.23l.435.48a1.807 1.807 0 0 0 1.334.58 1.887 1.887 0 0 0 .706-.14l.6-.25a.7.7 0 0 1 .281-.06.716.716 0 0 1 .685.51l.18.61a1.78 1.78 0 0 0 1.641 1.26l.649.03a.7.7 0 0 1 .523.26.657.657 0 0 1 .149.55l-.105.63a1.728 1.728 0 0 0 .921 1.83l.571.3a.709.709 0 0 1 .36.46.668.668 0 0 1-.11.56l-.373.52a1.727 1.727 0 0 0 .017 2.05l.382.51a.732.732 0 0 1 .106.56zM12.4 6.99a3.072 3.072 0 0 1-3.8 0 3.051 3.051 0 0 0-2.141.87 2.875 2.875 0 0 0-.887 2.09 2.918 2.918 0 0 0 .891 2.1l3.392 3.32a.885.885 0 0 0 .65.27.921.921 0 0 0 .649-.27l3.388-3.31a2.95 2.95 0 0 0 .891-2.1 2.916 2.916 0 0 0-.886-2.1 3.037 3.037 0 0 0-2.147-.87zm1.378 4.33L10.5 14.53l-3.283-3.22a1.889 1.889 0 0 1 0-2.71 1.966 1.966 0 0 1 1.378-.56 2 2 0 0 1 1.387.57l.14.14a.577.577 0 0 0 .759 0l.136-.14a1.987 1.987 0 0 1 2.765 0 1.893 1.893 0 0 1-.004 2.71z"/></symbol><symbol id="tab-icon-03" viewBox="0 0 22.97 23"><path class="cls-1" d="M21.18 9.02a1.538 1.538 0 0 0 .39-1.58 1.5 1.5 0 0 0-1.23-1.04l-5.03-.75a.281.281 0 0 1-.23-.16L12.83.86a1.505 1.505 0 0 0-2.72 0L7.86 5.49a.3.3 0 0 1-.23.16L2.6 6.4a1.5 1.5 0 0 0-1.23 1.04 1.538 1.538 0 0 0 .39 1.58l3.64 3.61a.332.332 0 0 1 .09.27l-.86 5.09a1.523 1.523 0 0 0 .6 1.5 1.5 1.5 0 0 0 1.6.12l4.5-2.4a.28.28 0 0 1 .28 0l4.5 2.4a1.527 1.527 0 0 0 .71.18 1.491 1.491 0 0 0 .89-.3 1.523 1.523 0 0 0 .6-1.5l-.86-5.09a.332.332 0 0 1 .09-.27zm-4.92 4.09l.86 5.09a.316.316 0 0 1-.12.3.305.305 0 0 1-.32.02l-4.5-2.4a1.527 1.527 0 0 0-.71-.18 1.5 1.5 0 0 0-.71.18l-4.5 2.4a.305.305 0 0 1-.32-.02.316.316 0 0 1-.12-.3l.86-5.09a1.575 1.575 0 0 0-.43-1.37L2.6 8.14a.288.288 0 0 1-.07-.31.266.266 0 0 1 .24-.21l5.03-.75a1.5 1.5 0 0 0 1.15-.84L11.2 1.4a.3.3 0 0 1 .54 0l2.25 4.63a1.5 1.5 0 0 0 1.14.84l5.04.75a.3.3 0 0 1 .16.52l-3.64 3.6a1.575 1.575 0 0 0-.43 1.37zM18.56.86a.608.608 0 0 0-.85.13l-.64.9a.618.618 0 0 0 .13.86.6.6 0 0 0 .36.12.626.626 0 0 0 .49-.25l.64-.9a.618.618 0 0 0-.13-.86zM5.87 1.89l-.64-.9a.6.6 0 0 0-.85-.14.631.631 0 0 0-.14.86l.65.9a.6.6 0 0 0 .49.26.615.615 0 0 0 .49-.98zM2.2 13.82a.614.614 0 0 0-.77-.4l-1.04.35a.616.616 0 0 0 .19 1.2.566.566 0 0 0 .18-.03l1.05-.35a.621.621 0 0 0 .39-.77zm9.27 6.83a.615.615 0 0 0-.61.62v1.11a.615.615 0 0 0 .61.62.621.621 0 0 0 .61-.62v-1.11a.621.621 0 0 0-.61-.62zm11.08-6.88l-1.04-.35a.615.615 0 0 0-.38 1.17l1.04.35a.68.68 0 0 0 .19.03.616.616 0 0 0 .19-1.2z"/></symbol><symbol id="tab-icon-04" viewBox="0 0 24 24"><path id="Forma_1" data-name="Forma 1" class="cls-1" d="M1363 1585.79a5.79 5.79 0 1 0-5.79-5.79 5.793 5.793 0 0 0 5.79 5.79zm0-9.91a4.12 4.12 0 1 1-4.12 4.12 4.114 4.114 0 0 1 4.12-4.12zm.85-4.36v-2.67a.85.85 0 0 0-1.7 0v2.67a.85.85 0 0 0 1.7 0zm-1.7 16.96v2.67a.85.85 0 0 0 1.7 0v-2.67a.85.85 0 0 0-1.7 0zm7.45-13.88l1.88-1.88a.851.851 0 0 0 0-1.2.833.833 0 0 0-1.2 0l-1.88 1.88a.849.849 0 1 0 1.2 1.2zm-15.08 13.88a.8.8 0 0 0 .6.25.866.866 0 0 0 .6-.25l1.88-1.88a.849.849 0 0 0-1.2-1.2l-1.88 1.88a.851.851 0 0 0 0 1.2zM1375 1580a.837.837 0 0 0-.85-.85h-2.67a.85.85 0 0 0 0 1.7h2.67a.856.856 0 0 0 .85-.85zm-23.15.85h2.67a.85.85 0 0 0 0-1.7h-2.67a.837.837 0 0 0-.85.85.856.856 0 0 0 .85.85zm19.03 7.88a.832.832 0 0 0 .6-.25.851.851 0 0 0 0-1.2l-1.88-1.88a.849.849 0 0 0-1.2 1.2l1.88 1.88a.866.866 0 0 0 .6.25zm-13.28-14.13a.851.851 0 0 0 0-1.2l-1.88-1.88a.833.833 0 0 0-1.2 0 .851.851 0 0 0 0 1.2l1.88 1.88a.845.845 0 0 0 1.2 0z" transform="translate(-1351 -1568)"/></symbol><symbol id="temp-icon-left-arrow" viewBox="0 0 31.494 31.494"><path d="M10.273 5.01a1.117 1.117 0 0 1 1.587 1.57l-8.047 8.047h26.554c.62 0 1.127.492 1.127 1.11 0 .62-.508 1.128-1.127 1.128H3.813l8.047 8.032c.43.444.43 1.16 0 1.587a1.112 1.112 0 0 1-1.587 0L.32 16.532a1.12 1.12 0 0 1 0-1.57l9.953-9.953z" fill="#1E201D"/></symbol><symbol id="temp-icon-right-arrow" viewBox="0 0 31.49 31.49"><path d="M21.205 5.007a1.117 1.117 0 0 0-1.587 1.57l8.047 8.048H1.11c-.618 0-1.11.493-1.11 1.112 0 .62.492 1.127 1.11 1.127h26.555l-8.047 8.032c-.43.444-.43 1.16 0 1.587.444.444 1.16.444 1.587 0l9.952-9.952a1.092 1.092 0 0 0 0-1.57l-9.952-9.95z" fill="#1E201D"/></symbol></svg>